<svg width="153" height="32" viewBox="0 0 153 32" fill="none" xmlns="http://www.w3.org/2000/svg">
<path d="M50.2422 12.1307C50.1513 11.3239 49.7763 10.6989 49.1172 10.2557C48.4581 9.80682 47.6286 9.58239 46.6286 9.58239C45.9126 9.58239 45.2933 9.69602 44.7706 9.92329C44.2479 10.1449 43.8416 10.4517 43.5518 10.8438C43.2678 11.2301 43.1257 11.6705 43.1257 12.1648C43.1257 12.5795 43.2223 12.9375 43.4155 13.2386C43.6143 13.5398 43.8729 13.7926 44.1911 13.9972C44.5149 14.196 44.8615 14.3636 45.2308 14.5C45.6001 14.6307 45.9553 14.7386 46.2962 14.8239L48.0007 15.267C48.5575 15.4034 49.1286 15.5881 49.7138 15.821C50.299 16.054 50.8416 16.3608 51.3416 16.7415C51.8416 17.1222 52.245 17.5938 52.5518 18.1562C52.8643 18.7188 53.0206 19.392 53.0206 20.1761C53.0206 21.1648 52.7649 22.0426 52.2536 22.8097C51.7479 23.5767 51.0121 24.1818 50.0462 24.625C49.0859 25.0682 47.924 25.2898 46.5604 25.2898C45.2536 25.2898 44.1229 25.0824 43.1683 24.6676C42.2138 24.2528 41.4666 23.6648 40.9268 22.9034C40.3871 22.1364 40.0888 21.2273 40.032 20.1761H42.674C42.7251 20.8068 42.9297 21.3324 43.2876 21.7528C43.6513 22.1676 44.1143 22.4773 44.6768 22.6818C45.245 22.8807 45.8672 22.9801 46.5433 22.9801C47.2876 22.9801 47.9496 22.8636 48.5291 22.6307C49.1143 22.392 49.5746 22.0625 49.9098 21.642C50.245 21.2159 50.4126 20.7187 50.4126 20.1506C50.4126 19.6335 50.2649 19.2102 49.9695 18.8807C49.6797 18.5511 49.2848 18.2784 48.7848 18.0625C48.2905 17.8466 47.7308 17.6562 47.1058 17.4915L45.0433 16.929C43.6456 16.5483 42.5376 15.9886 41.7195 15.25C40.907 14.5114 40.5007 13.5341 40.5007 12.3182C40.5007 11.3125 40.7734 10.4347 41.3189 9.68466C41.8643 8.93466 42.603 8.35227 43.5348 7.9375C44.4666 7.51705 45.5178 7.30682 46.6882 7.30682C47.87 7.30682 48.9126 7.5142 49.8161 7.92898C50.7251 8.34375 51.4411 8.91477 51.9638 9.64204C52.4865 10.3636 52.7592 11.1932 52.782 12.1307H50.2422ZM61.4773 25.2642C60.2102 25.2642 59.1193 24.9773 58.2045 24.4034C57.2955 23.8239 56.5966 23.0256 56.108 22.0085C55.6193 20.9915 55.375 19.8267 55.375 18.5142C55.375 17.1847 55.625 16.0114 56.125 14.9943C56.625 13.9716 57.3295 13.1733 58.2386 12.5994C59.1477 12.0256 60.2188 11.7386 61.4517 11.7386C62.446 11.7386 63.3324 11.9233 64.1108 12.2926C64.8892 12.6562 65.517 13.1676 65.9943 13.8267C66.4773 14.4858 66.7642 15.2557 66.8551 16.1364H64.375C64.2386 15.5227 63.9261 14.9943 63.4375 14.5511C62.9545 14.108 62.3068 13.8864 61.4943 13.8864C60.7841 13.8864 60.1619 14.0739 59.6278 14.4489C59.0994 14.8182 58.6875 15.3466 58.392 16.0341C58.0966 16.7159 57.9489 17.5227 57.9489 18.4545C57.9489 19.4091 58.0938 20.233 58.3835 20.9261C58.6733 21.6193 59.0824 22.1562 59.6108 22.5369C60.1449 22.9176 60.7727 23.108 61.4943 23.108C61.9773 23.108 62.4148 23.0199 62.8068 22.8438C63.2045 22.6619 63.5369 22.4034 63.804 22.0682C64.0767 21.733 64.267 21.3295 64.375 20.858H66.8551C66.7642 21.7045 66.4886 22.4602 66.0284 23.125C65.5682 23.7898 64.9517 24.3125 64.179 24.6932C63.4119 25.0739 62.5114 25.2642 61.4773 25.2642ZM75.0945 25.2642C73.8672 25.2642 72.7962 24.983 71.8814 24.4205C70.9666 23.858 70.2564 23.071 69.7507 22.0597C69.245 21.0483 68.9922 19.8665 68.9922 18.5142C68.9922 17.1562 69.245 15.9687 69.7507 14.9517C70.2564 13.9347 70.9666 13.1449 71.8814 12.5824C72.7962 12.0199 73.8672 11.7386 75.0945 11.7386C76.3217 11.7386 77.3928 12.0199 78.3075 12.5824C79.2223 13.1449 79.9325 13.9347 80.4382 14.9517C80.9439 15.9687 81.1967 17.1562 81.1967 18.5142C81.1967 19.8665 80.9439 21.0483 80.4382 22.0597C79.9325 23.071 79.2223 23.858 78.3075 24.4205C77.3928 24.983 76.3217 25.2642 75.0945 25.2642ZM75.103 23.125C75.8984 23.125 76.5575 22.9148 77.0803 22.4943C77.603 22.0739 77.9893 21.5142 78.2393 20.8153C78.495 20.1165 78.6229 19.3466 78.6229 18.5057C78.6229 17.6705 78.495 16.9034 78.2393 16.2045C77.9893 15.5 77.603 14.9347 77.0803 14.5085C76.5575 14.0824 75.8984 13.8693 75.103 13.8693C74.3018 13.8693 73.6371 14.0824 73.1087 14.5085C72.5859 14.9347 72.1967 15.5 71.9411 16.2045C71.6911 16.9034 71.5661 17.6705 71.5661 18.5057C71.5661 19.3466 71.6911 20.1165 71.9411 20.8153C72.1967 21.5142 72.5859 22.0739 73.1087 22.4943C73.6371 22.9148 74.3018 23.125 75.103 23.125ZM92.3338 19.571V11.9091H94.8906V25H92.3849V22.733H92.2486C91.9474 23.4318 91.4645 24.0142 90.7997 24.4801C90.1406 24.9403 89.3196 25.1705 88.3366 25.1705C87.4957 25.1705 86.7514 24.9858 86.1037 24.6165C85.4616 24.2415 84.956 23.6875 84.5866 22.9545C84.223 22.2216 84.0412 21.3153 84.0412 20.2358V11.9091H86.5895V19.929C86.5895 20.821 86.8366 21.5312 87.331 22.0597C87.8253 22.5881 88.4673 22.8523 89.2571 22.8523C89.7344 22.8523 90.2088 22.733 90.6804 22.4943C91.1577 22.2557 91.5526 21.8949 91.8651 21.4119C92.1832 20.929 92.3395 20.3153 92.3338 19.571ZM104.425 11.9091V13.9545H97.2749V11.9091H104.425ZM99.1925 8.77273H101.741V21.1562C101.741 21.6506 101.815 22.0227 101.962 22.2727C102.11 22.517 102.3 22.6847 102.533 22.7756C102.772 22.8608 103.031 22.9034 103.309 22.9034C103.513 22.9034 103.692 22.8892 103.846 22.8608C103.999 22.8324 104.119 22.8097 104.204 22.7926L104.664 24.8977C104.516 24.9545 104.306 25.0114 104.033 25.0682C103.761 25.1307 103.42 25.1648 103.011 25.1705C102.34 25.1818 101.715 25.0625 101.136 24.8125C100.556 24.5625 100.087 24.1761 99.7294 23.6534C99.3714 23.1307 99.1925 22.4744 99.1925 21.6847V8.77273ZM110.074 7.54545V25H107.526V7.54545H110.074ZM113.502 25V11.9091H116.05V25H113.502ZM114.789 9.8892C114.346 9.8892 113.965 9.74148 113.647 9.44602C113.335 9.14489 113.178 8.78693 113.178 8.37216C113.178 7.9517 113.335 7.59375 113.647 7.29829C113.965 6.99716 114.346 6.84659 114.789 6.84659C115.232 6.84659 115.61 6.99716 115.923 7.29829C116.241 7.59375 116.4 7.9517 116.4 8.37216C116.4 8.78693 116.241 9.14489 115.923 9.44602C115.61 9.74148 115.232 9.8892 114.789 9.8892ZM125.709 11.9091V13.9545H118.311V11.9091H125.709ZM120.339 25V10.392C120.339 9.57386 120.518 8.89489 120.876 8.35511C121.234 7.80966 121.709 7.40341 122.3 7.13636C122.891 6.86364 123.533 6.72727 124.226 6.72727C124.737 6.72727 125.175 6.76989 125.538 6.85511C125.902 6.93466 126.172 7.00852 126.348 7.0767L125.751 9.1392C125.632 9.10511 125.479 9.06534 125.291 9.01989C125.104 8.96875 124.876 8.94318 124.609 8.94318C123.99 8.94318 123.547 9.09659 123.28 9.40341C123.018 9.71023 122.888 10.1534 122.888 10.733V25H120.339ZM129.949 29.9091C129.568 29.9091 129.222 29.8778 128.909 29.8153C128.597 29.7585 128.364 29.696 128.21 29.6278L128.824 27.5398C129.29 27.6648 129.705 27.7188 130.068 27.7017C130.432 27.6847 130.753 27.5483 131.031 27.2926C131.315 27.0369 131.565 26.6193 131.781 26.0398L132.097 25.1705L127.307 11.9091H130.034L133.349 22.0682H133.486L136.801 11.9091H139.537L134.142 26.7472C133.892 27.429 133.574 28.0057 133.188 28.4773C132.801 28.9545 132.341 29.3125 131.807 29.5511C131.273 29.7898 130.653 29.9091 129.949 29.9091Z" fill="#201D2D"/>
<path d="M142.79 25.1619C142.325 25.1619 141.924 24.9972 141.589 24.6676C141.254 24.3324 141.086 23.929 141.086 23.4574C141.086 22.9915 141.254 22.5937 141.589 22.2642C141.924 21.929 142.325 21.7614 142.79 21.7614C143.256 21.7614 143.657 21.929 143.992 22.2642C144.327 22.5937 144.495 22.9915 144.495 23.4574C144.495 23.7699 144.415 24.0568 144.256 24.3182C144.103 24.5739 143.898 24.7784 143.643 24.9318C143.387 25.0852 143.103 25.1619 142.79 25.1619Z" fill="#FD5631"/>
<path d="M16 32C24.8 32 32 24.8 32 16C32 7.2 24.8 0 16 0C7.2 0 0 7.2 0 16C0 24.8 7.2 32 16 32Z" fill="#FD5631"/>
<path opacity="0.55" d="M31.7016 19.3002L22.0016 9.6002C18.8016 6.4002 13.7016 6.4002 10.5016 9.6002C7.30156 12.8002 7.30156 17.9002 10.5016 21.1002L20.7016 31.3002C26.2016 29.6002 30.5016 25.0002 31.7016 19.3002Z" fill="#BE1E2D"/>
<path d="M26.4 22.1996L23.2 18.9996C23.8 17.8996 24.2 16.4996 24.2 15.1996C24.2 10.6996 20.6 7.09961 16.1 7.09961C11.6 7.09961 8 10.6996 8 15.1996C8 19.6996 11.6 23.2996 16.1 23.2996C16.1 23.2996 16.1 23.2996 16.2 23.2996C17.5 23.2996 18.9 22.8996 20 22.2996L23.2 25.4996C24.2 26.4996 25.6 26.4996 26.5 25.4996C27.3 24.5996 27.3 23.1996 26.4 22.1996ZM16.1 21.3996C12.7 21.3996 9.9 18.5996 9.9 15.1996C9.9 11.7996 12.7 8.99961 16.1 8.99961C19.5 8.99961 22.3 11.7996 22.3 15.1996C22.3 18.5996 19.5 21.3996 16.1 21.3996Z" fill="white"/>
</svg>
